<svg xmlns="http://www.w3.org/2000/svg" version="1.1" xmlns:xlink="http://www.w3.org/1999/xlink" xmlns:svgjs="http://svgjs.dev/svgjs" width="1000" height="1000"><style>
    #light-icon {
      display: inline;
    }
    #dark-icon {
      display: none;
    }

    @media (prefers-color-scheme: dark) {
      #light-icon {
        display: none;
      }
      #dark-icon {
        display: inline;
      }
    }
  </style><g id="light-icon"><svg xmlns="http://www.w3.org/2000/svg" version="1.1" xmlns:xlink="http://www.w3.org/1999/xlink" xmlns:svgjs="http://svgjs.dev/svgjs" width="1000" height="1000"><g clip-path="url(#SvgjsClipPath1111)"><rect width="1000" height="1000" fill="#ffffff"></rect><g transform="matrix(1.3071895424836601,0,0,1.3071895424836601,100,100)"><svg xmlns="http://www.w3.org/2000/svg" version="1.1" xmlns:xlink="http://www.w3.org/1999/xlink" xmlns:svgjs="http://svgjs.dev/svgjs" width="612" height="612"><svg id="Layer_1" data-name="Layer 1" xmlns="http://www.w3.org/2000/svg" viewBox="0 0 612 612">
  <path fill="#342c3b" d="M278.03,47.68c205.74-13.65,340.68,213.43,225.64,386.4-97.74,146.96-313.07,148.2-412.89,2.71C-17.47,279.04,88.46,60.26,278.03,47.68ZM105.38,347.21c36.55,140.14,210.26,194.88,320.82,98.59,116.07-101.08,76.97-290.68-68.48-338.1-123.23-40.18-250.85,48.13-259.1,176.02h235.75c2,0,9.88-5.45,11.5-7.41,7.87-9.56,6.23-24.21-3.4-31.77-.96-.75-6.36-4.05-6.75-4.05h-56.07v29.05l-2.03,2.03h-73.63v-94.57h149.28c5.31,0,22.72,5.8,28.18,8.3,61.88,28.29,63.13,125.81,0,153.63-6.11,2.69-23.49,8.3-29.53,8.3h-72.28v81.06h-75.66v-81.06h-98.62Z"></path>
</svg></svg></g></g><defs><clipPath id="SvgjsClipPath1111"><rect width="1000" height="1000" x="0" y="0" rx="250" ry="250"></rect></clipPath></defs></svg></g><g id="dark-icon"><svg xmlns="http://www.w3.org/2000/svg" version="1.1" xmlns:xlink="http://www.w3.org/1999/xlink" xmlns:svgjs="http://svgjs.dev/svgjs" width="1000" height="1000"><g><g transform="matrix(1.6339869281045751,0,0,1.6339869281045751,0,0)" style="filter: invert(100%)"><svg xmlns="http://www.w3.org/2000/svg" version="1.1" xmlns:xlink="http://www.w3.org/1999/xlink" xmlns:svgjs="http://svgjs.dev/svgjs" width="612" height="612"><svg id="Layer_1" data-name="Layer 1" xmlns="http://www.w3.org/2000/svg" viewBox="0 0 612 612">
  <path fill="#342c3b" d="M278.03,47.68c205.74-13.65,340.68,213.43,225.64,386.4-97.74,146.96-313.07,148.2-412.89,2.71C-17.47,279.04,88.46,60.26,278.03,47.68ZM105.38,347.21c36.55,140.14,210.26,194.88,320.82,98.59,116.07-101.08,76.97-290.68-68.48-338.1-123.23-40.18-250.85,48.13-259.1,176.02h235.75c2,0,9.88-5.45,11.5-7.41,7.87-9.56,6.23-24.21-3.4-31.77-.96-.75-6.36-4.05-6.75-4.05h-56.07v29.05l-2.03,2.03h-73.63v-94.57h149.28c5.31,0,22.72,5.8,28.18,8.3,61.88,28.29,63.13,125.81,0,153.63-6.11,2.69-23.49,8.3-29.53,8.3h-72.28v81.06h-75.66v-81.06h-98.62Z"></path>
</svg></svg></g></g></svg></g></svg>