<svg
  xmlns="http://www.w3.org/2000/svg"
  version="1.1"
  viewBox="0 0 612 207.6"
  class="mx-auto w-72 sm:w-96"
>
  <g id="Layer_1">
    <path
      fill="#b6b8b9"
      d="M95.4,79.5l13.4,37.3,12.4-37.3h31.8v75h-22.9v-46.7c-5.6,15.6-11.2,31.1-16.9,46.7-3.3,0-6.6,0-9.9,0l-16.4-45.6-.5,45.7h-22.4v-75h31.3Z"
    ></path>
    <rect
      fill="#b6b8b9"
      x="64.1"
      y="182.3"
      width="493.8"
      height="9.4"></rect>
    <path
      fill="#b6b8b9"
      d="M507.2,79.5c8.6,12.2,17.2,24.5,25.9,36.7,0-12.2,0-24.5,0-36.7h22.3v75c-7.4,0-14.9,0-22.3,0-9-13.2-17.9-26.5-26.9-39.7v39.7h-22.9v-75c7.9,0,15.9,0,23.8,0Z"
    ></path>
    <path
      fill="#b6b8b9"
      d="M226.5,79.5v18.9h-34.3v8.4h33.3v18.9h-33.3v9.9h34.3c0,6.3,0,12.6,0,18.9h-57.1v-75h57.1Z"
    ></path>
    <path
      fill="#b6b8b9"
      d="M466.5,79.5v18.9h-34.3v8.4h33.3v18.9h-33.3v9.9h34.3v18.9h-56.6v-75h56.6Z"
    ></path>
    <path
      fill="#b6b8b9"
      d="M362.5,78.6c13.4-1.4,27.2,1.6,37.8,10l-12.1,16.1c-6-4.7-16.5-8.8-24.1-7.2-4.2.9-4.8,5.1-1,7,4.5,2.2,14,2.8,19.5,4.4,14.2,4,22.6,12.1,18.6,27.8-4.9,19.6-30.4,21-46.6,17.1-7-1.7-13.9-5.2-19.2-10.1l11.6-17.1c5,6.6,23.9,13.3,30.6,8.2,5.8-4.4-2.5-7.1-6-8-11.9-3-28.6-3.5-32.9-17.8-5-16.6,8.2-28.9,23.9-30.5h0Z"
    ></path>
    <polygon
      fill="#b6b8b9"
      points="299 79.5 299 134.6 327.4 134.6 327.4 154.5 276.2 154.5 276.2 79.5 299 79.5"
    ></polygon>
    <path
      fill="#b6b8b9"
      d="M425.7,33.8V14.9h11.4v16.4h120.7v9.4h-120.7v12.4c-3.8,0-7.6,0-11.4,0-4.6-6.6-9.3-13.3-13.9-19.9v19.9h-11.4V14.9h11.7l13.7,18.9Z"
    ></path>
    <path
      fill="#b6b8b9"
      d="M191.2,40.7v12.4h-11.4v-12.4h-115.7v-9.4h115.7V14.9c7.4,0,14.8,0,22.2,0,1,0,2.6.4,4.5,1.4,3.4,1.9,7.2,6.1,7.2,11.7,0,4.3-2.1,8.4-5.4,10.7-1.9,1.3-3.6,2.1-6.3,2.1-3.6,0-7.2,0-10.8,0ZM191.2,31.3h8.2c1.5-.3,2.6-1.7,2.6-3.2,0-1.5-1.1-2.9-2.6-3.2-2.7,0-5.4,0-8.2,0v6.5Z"
    ></path>
    <path
      fill="#b6b8b9"
      d="M261.8,79.5c0,25,0,50,0,75h-22.9v-75h22.9Z"></path>
    <path
      fill="#b6b8b9"
      d="M296.5,15.1c30-3.5,32.2,35.7,6.3,38-29.2,2.6-31.5-35-6.3-38ZM299.9,25.1c-4.9,0-8.9,4-8.9,8.9s4,8.9,8.9,8.9c4.9,0,8.9-4,8.9-8.9s-4-8.9-8.9-8.9Z"
    ></path>
    <polygon
      fill="#b6b8b9"
      points="246.4 14.9 246.4 24.8 229 24.8 229 28.8 245.9 28.8 245.9 38.8 229 38.8 229 43.7 246.4 43.7 246.4 53.2 217.6 53.2 217.6 14.9 246.4 14.9"
    ></polygon>
    <path
      fill="#b6b8b9"
      d="M353.7,14.9v9.9c-3.5,0-6.9,0-10.4,0,0,9.4,0,18.9,0,28.3h-11.4v-28.3h-9.9v-9.9h31.8Z"
    ></path>
    <path
      fill="#b6b8b9"
      d="M263.3,14.9v28.3h14.4v9.9c-8.8,0-17.6,0-26.3,0V14.9h11.9Z"
    ></path>
    <path
      fill="#b6b8b9"
      d="M372,15.1c30-3.5,32.2,35.7,6.3,38-29.2,2.6-31.5-35-6.3-38ZM375.5,25.2c-4.9,0-8.9,4-8.9,8.9s4,8.9,8.9,8.9c4.9,0,8.9-4,8.9-8.9s-4-8.9-8.9-8.9Z"
    ></path>
  </g>
</svg>